<?xml version="1.0" encoding="utf-8"?><svg viewBox="0 0 800 800" xmlns="http://www.w3.org/2000/svg" xmlns:xlink="http://www.w3.org/1999/xlink"><style>:root>svg{display:none}:root>svg:target{display:block}</style><svg viewBox="-6 -2 24 24" preserveAspectRatio="xMinYMin" class="ajam ajam-odnoklassniki" id="ok" xmlns="http://www.w3.org/2000/svg"><path d="M4.974 14.011c-1.531-.16-2.912-.54-4.094-1.471-.147-.116-.299-.228-.432-.357-.518-.5-.57-1.074-.16-1.664.35-.506.938-.641 1.549-.35.118.055.23.126.339.201 2.203 1.524 5.23 1.566 7.441.069.22-.17.454-.308.725-.378.528-.136 1.02.059 1.303.524.324.53.32 1.05-.079 1.461-.611.633-1.347 1.09-2.164 1.409-.773.302-1.62.454-2.457.554.126.139.186.207.265.287 1.137 1.15 2.28 2.297 3.414 3.451.386.394.467.881.254 1.339-.233.5-.753.829-1.264.794-.323-.023-.575-.185-.8-.412-.858-.87-1.732-1.724-2.573-2.61-.245-.258-.363-.209-.579.015-.863.895-1.74 1.776-2.624 2.653-.396.393-.868.464-1.328.24-.488-.24-.8-.741-.775-1.246.016-.342.183-.602.416-.836 1.126-1.132 2.248-2.267 3.371-3.4.074-.076.144-.156.252-.273z"/><path d="M5.907 10.069C3.175 10.059.935 7.779.95 5.023.966 2.237 3.208-.007 5.967 0c2.764.007 4.983 2.285 4.97 5.1-.015 2.75-2.27 4.978-5.03 4.969zm2.483-5.04a2.444 2.444 0 00-2.443-2.458A2.447 2.447 0 003.498 5.06 2.443 2.443 0 005.96 7.5a2.439 2.439 0 002.43-2.47z"/></svg><svg aria-hidden="true" data-prefix="fab" data-icon="telegram-plane" class="bsvg-inline--fa bfa-telegram-plane bfa-w-14" viewBox="0 0 448 512" id="telegram" xmlns="http://www.w3.org/2000/svg"><path d="M446.7 98.6l-67.6 318.8c-5.1 22.5-18.4 28.1-37.3 17.5l-103-75.9-49.7 47.8c-5.5 5.5-10.1 10.1-20.7 10.1l7.4-104.9 190.9-172.5c8.3-7.4-1.8-11.5-12.9-4.1L117.8 284 16.2 252.2c-22.1-6.9-22.5-22.1 4.6-32.7L418.2 66.4c18.4-6.9 34.5 4.1 28.5 32.2z"/></svg><svg viewBox="-2 -1.5 24 24" preserveAspectRatio="xMinYMin" class="cjam cjam-viber" id="viber" xmlns="http://www.w3.org/2000/svg"><path d="M17.29 8.607c.024-2.892-2.439-5.543-5.49-5.91a3.685 3.685 0 01-.197-.03 2.854 2.854 0 00-.465-.05c-.626 0-.793.44-.837.701-.043.255-.002.47.121.637.207.281.572.331.865.371.085.012.166.023.234.038 2.742.613 3.665 1.576 4.116 4.295.011.066.016.148.022.235.02.325.06 1.001.787 1.001.06 0 .126-.005.194-.015.676-.103.655-.721.645-1.018-.003-.084-.006-.163.002-.216a.289.289 0 00.002-.04z"/><path d="M10.96 1.636c.082.006.158.012.222.021 4.503.693 6.574 2.826 7.147 7.364.01.077.012.171.013.27.006.355.018 1.093.81 1.108h.024c.249 0 .446-.075.588-.223.246-.257.23-.64.215-.948-.003-.076-.006-.147-.006-.21.058-4.64-3.96-8.849-8.596-9.005-.02 0-.038 0-.056.003a.388.388 0 01-.055.003c-.047 0-.103-.004-.164-.008C11.03.006 10.947 0 10.862 0c-.738 0-.878.525-.896.838-.041.723.658.774.994.798zm7.152 13.25a14.326 14.326 0 01-.287-.224c-.492-.396-1.015-.76-1.52-1.113l-.315-.22c-.648-.455-1.23-.676-1.78-.676-.742 0-1.388.41-1.922 1.217-.236.358-.523.532-.876.532a1.74 1.74 0 01-.706-.177c-2.09-.948-3.584-2.402-4.438-4.321-.413-.928-.279-1.534.447-2.028.413-.28 1.18-.801 1.127-1.8-.062-1.133-2.563-4.544-3.617-4.931a2.053 2.053 0 00-1.396-.004C1.618 1.548.75 2.264.315 3.209c-.42.914-.4 1.987.054 3.103 1.315 3.227 3.163 6.041 5.494 8.363 2.281 2.273 5.085 4.134 8.333 5.533.293.126.6.195.825.245.076.017.142.032.19.045a.32.32 0 00.081.011h.026c1.528 0 3.363-1.396 3.926-2.987.494-1.394-.408-2.083-1.132-2.636zm-6.476-9.563c-.261.006-.806.02-.997.574-.09.26-.079.484.032.669.162.27.473.354.755.4 1.025.164 1.552.73 1.657 1.783.049.49.38.833.803.833a.79.79 0 00.096-.006c.51-.06.757-.435.735-1.114.008-.708-.362-1.512-.993-2.152-.632-.642-1.394-1.004-2.088-.987z"/></svg><svg viewBox="0 0 20 20" id="vk" xmlns="http://www.w3.org/2000/svg"><path d="M17.802 12.298s1.617 1.597 2.017 2.336a.127.127 0 01.018.035c.163.273.203.487.123.645-.135.261-.592.392-.747.403h-2.858c-.199 0-.613-.052-1.117-.4-.385-.269-.768-.712-1.139-1.145-.554-.643-1.033-1.201-1.518-1.201a.548.548 0 00-.18.03c-.367.116-.833.639-.833 2.032 0 .436-.344.684-.585.684H9.674c-.446 0-2.768-.156-4.827-2.327C2.324 10.732.058 5.4.036 5.353c-.141-.345.155-.533.475-.533h2.886c.387 0 .513.234.601.444.102.241.48 1.205 1.1 2.288 1.004 1.762 1.621 2.479 2.114 2.479a.527.527 0 00.264-.07c.644-.354.524-2.654.494-3.128 0-.092-.001-1.027-.331-1.479-.236-.324-.638-.45-.881-.496.065-.094.203-.238.38-.323.441-.22 1.238-.252 2.029-.252h.439c.858.012 1.08.067 1.392.146.628.15.64.557.585 1.943-.016.396-.033.842-.033 1.367 0 .112-.005.237-.005.364-.019.711-.044 1.512.458 1.841a.41.41 0 00.217.062c.174 0 .695 0 2.108-2.425.62-1.071 1.1-2.334 1.133-2.429.028-.053.112-.202.214-.262a.479.479 0 01.236-.056h3.395c.37 0 .621.056.67.196.082.227-.016.92-1.566 3.016-.261.349-.49.651-.691.915-1.405 1.844-1.405 1.937.083 3.337z"/></svg></svg>